<svg xmlns="http://www.w3.org/2000/svg" style="display:none;">
  <symbol id="icon-stats" viewBox="0 0 24 24" width="24" height="24">
    <rect x="3" y="12" width="4" height="8"/>
    <rect x="10" y="8" width="4" height="12"/>
    <rect x="17" y="4" width="4" height="16"/>
  </symbol>

  <symbol id="icon-familles" viewBox="0 0 24 24" width="24" height="24">
    <path d="M3 10.5l9-7 9 7v9a1.5 1.5 0 0 1-1.5 1.5H4.5A1.5 1.5 0 0 1 3 19.5v-9z" />
    <path d="M9 21v-6h6v6" />
  </symbol>

  <symbol id="icon-users" viewBox="0 0 24 24" width="24" height="24">
    <circle cx="7" cy="7" r="3.5"/>
    <circle cx="17" cy="7" r="3.5"/>
    <path d="M3.5 20c0-3.3 2.7-6 6-6s6 2.7 6 6"/>
    <path d="M13 20c0-2.4 1.9-4.5 4.5-4.5S22 17.6 22 20"/>
  </symbol>

<symbol id="icon-sync" viewBox="0 0 24 24">
  <path d="M12 4V1L8 5l4 4V6c3.31 0 6 2.69 6 6 0 1.1-.3 2.13-.82 3.01l1.46 1.46C19.54 14.3 20 13.21 20 12c0-4.42-3.58-8-8-8zm-6.64.35L3.9 5.81C3.46 6.7 3 7.79 3 9c0 4.42 3.58 8 8 8v3l4-4-4-4v3c-3.31 0-6-2.69-6-6 0-1.1.3-2.13.82-3.01z"/>
</symbol>

</svg>
